<svg width="537" height="108" viewBox="0 0 537 108" fill="none" xmlns="http://www.w3.org/2000/svg">
<path d="M4.50043 45.5001L4.50043 99.5001" stroke="#6B5DD3" stroke-width="8"/>
<path d="M41.0004 4.00009C40.0004 24.5001 28.0004 45.5 4.00042 48.5001" stroke="#6B5DD3" stroke-width="8" stroke-linecap="round"/>
<path d="M40.5004 4.50012L40.5004 99.5001" stroke="#6B5DD3" stroke-width="8" stroke-linecap="round"/>
<path d="M40.5005 4.49995C60.0004 40.5 92.0004 29.5 104.5 37.4999" stroke="#6B5DD3" stroke-width="8" stroke-linecap="round"/>
<path d="M109.5 42.5001C79.0004 49.0001 60.5004 71.0001 56.5004 103.5" stroke="#6B5DD3" stroke-width="8" stroke-linecap="round"/>
<path d="M0.500427 103.5H60.5004" stroke="#6B5DD3" stroke-width="8"/>
<path d="M225.5 45.7708V99.7708" stroke="#6B5DD3" stroke-width="8"/>
<path d="M189 4.27072C190 24.7707 202 45.7707 226 48.7707" stroke="#6B5DD3" stroke-width="8" stroke-linecap="round"/>
<path d="M189.5 4.77075V99.7708" stroke="#6B5DD3" stroke-width="8" stroke-linecap="round"/>
<path d="M189.5 4.77058C170 40.7707 138 29.7707 125.5 37.7706" stroke="#6B5DD3" stroke-width="8" stroke-linecap="round"/>
<path d="M120.5 42.7708C151 49.2708 169.5 71.2708 173.5 103.771" stroke="#6B5DD3" stroke-width="8" stroke-linecap="round"/>
<path d="M229.5 103.771H169.5" stroke="#6B5DD3" stroke-width="8"/>
<path d="M89.6342 30.0616L139.105 30.4572C139.659 30.4616 139.795 31.23 139.277 31.4249L128.91 35.3126C128.373 35.514 127.998 36.0037 127.944 36.5743L127.089 45.548C127.065 45.8044 126.849 46.0001 126.591 46.0001H103.457C103.19 45.9999 102.97 45.7889 102.958 45.5216L102.532 35.7062C102.503 35.0558 102.059 34.4981 101.431 34.3253L89.4975 31.0431C88.9336 30.8878 89.0492 30.057 89.6342 30.0616Z" fill="#6B5DD3" stroke="#6B5DD3"/>
<path d="M258.573 104.229V59.4295H276.941C280.055 59.4295 282.679 59.9202 284.813 60.9015C286.946 61.8828 288.546 63.2482 289.613 64.9975C290.722 66.7042 291.277 68.6882 291.277 70.9495C291.277 73.2108 290.786 75.1095 289.805 76.6455C288.823 78.1815 287.522 79.3762 285.901 80.2295C284.322 81.0402 282.573 81.5095 280.653 81.6375L281.677 80.9335C283.725 81.0188 285.538 81.5735 287.117 82.5975C288.738 83.5788 289.997 84.9015 290.893 86.5655C291.831 88.2295 292.301 90.0428 292.301 92.0055C292.301 94.3948 291.725 96.5068 290.573 98.3415C289.421 100.176 287.757 101.627 285.581 102.693C283.405 103.717 280.738 104.229 277.581 104.229H258.573ZM267.213 97.1895H276.173C278.519 97.1895 280.333 96.6562 281.613 95.5895C282.893 94.5228 283.533 92.9868 283.533 90.9815C283.533 88.9762 282.871 87.4188 281.549 86.3095C280.226 85.1575 278.391 84.5815 276.045 84.5815H267.213V97.1895ZM267.213 78.1175H275.533C277.794 78.1175 279.501 77.6055 280.653 76.5815C281.847 75.5575 282.445 74.1068 282.445 72.2295C282.445 70.3948 281.847 68.9655 280.653 67.9415C279.501 66.8748 277.773 66.3415 275.469 66.3415H267.213V78.1175ZM296.065 104.229L312.449 59.4295H322.241L338.561 104.229H329.409L317.313 69.2855L305.153 104.229H296.065ZM303.297 94.0535L305.601 87.3335H328.385L330.625 94.0535H303.297ZM359.872 104.997C356.629 104.997 353.728 104.443 351.168 103.333C348.65 102.224 346.645 100.603 345.152 98.4695C343.701 96.3362 342.954 93.7548 342.912 90.7255H352.064C352.106 92.0482 352.448 93.2428 353.088 94.3095C353.728 95.3762 354.602 96.2295 355.712 96.8695C356.864 97.4668 358.229 97.7655 359.808 97.7655C361.173 97.7655 362.346 97.5522 363.328 97.1255C364.352 96.6562 365.141 96.0162 365.696 95.2055C366.25 94.3948 366.528 93.4348 366.528 92.3255C366.528 91.0455 366.208 89.9788 365.568 89.1255C364.97 88.2722 364.117 87.5468 363.008 86.9495C361.941 86.3522 360.682 85.8188 359.232 85.3495C357.824 84.8375 356.33 84.3042 354.752 83.7495C351.21 82.5975 348.501 81.0615 346.624 79.1415C344.789 77.2215 343.872 74.6828 343.872 71.5255C343.872 68.8375 344.512 66.5335 345.792 64.6135C347.114 62.6935 348.928 61.2215 351.232 60.1975C353.536 59.1735 356.16 58.6615 359.104 58.6615C362.133 58.6615 364.778 59.1948 367.04 60.2615C369.344 61.2855 371.157 62.7788 372.48 64.7415C373.845 66.7042 374.549 69.0082 374.592 71.6535H365.376C365.333 70.6722 365.034 69.7548 364.48 68.9015C363.968 68.0055 363.242 67.3015 362.304 66.7895C361.365 66.2348 360.256 65.9575 358.976 65.9575C357.866 65.9148 356.842 66.0855 355.904 66.4695C355.008 66.8535 354.282 67.4295 353.728 68.1975C353.216 68.9228 352.96 69.8402 352.96 70.9495C352.96 72.0162 353.216 72.9122 353.728 73.6375C354.282 74.3628 355.029 75.0028 355.968 75.5575C356.906 76.0695 358.016 76.5602 359.296 77.0295C360.576 77.4562 361.962 77.9042 363.456 78.3735C365.674 79.1415 367.722 80.0588 369.6 81.1255C371.477 82.1495 372.97 83.4935 374.08 85.1575C375.189 86.8215 375.744 89.0188 375.744 91.7495C375.744 94.0962 375.125 96.2722 373.888 98.2775C372.65 100.283 370.858 101.904 368.512 103.141C366.208 104.379 363.328 104.997 359.872 104.997ZM383.073 104.229V59.4295H412.513V66.4055H391.713V78.1175H410.593V84.8375H391.713V97.2535H412.513V104.229H383.073ZM420.385 104.229V59.4295H429.025V97.5095H448.673V104.229H420.385ZM456.073 104.229V59.4295H485.513V66.4055H464.713V78.1175H483.593V84.8375H464.713V97.2535H485.513V104.229H456.073ZM491.081 104.229L505.225 81.5095L490.889 59.4295H500.873L510.729 74.7255L519.753 59.4295H529.481L515.465 81.8935L529.865 104.229H519.881L509.961 88.6775L500.873 104.229H491.081Z" fill="#6B5DD3"/>
</svg>
