<svg width="478" height="108" viewBox="0 0 478 108" fill="none" xmlns="http://www.w3.org/2000/svg">
<path d="M4.50043 45.5001L4.50043 99.5001" stroke="#6B5DD3" stroke-width="8"/>
<path d="M41.0004 4.00009C40.0004 24.5001 28.0004 45.5 4.00042 48.5001" stroke="#6B5DD3" stroke-width="8" stroke-linecap="round"/>
<path d="M40.5004 4.50006L40.5004 99.5001" stroke="#6B5DD3" stroke-width="8" stroke-linecap="round"/>
<path d="M40.5005 4.49995C60.0004 40.5 92.0004 29.5 104.5 37.4999" stroke="#6B5DD3" stroke-width="8" stroke-linecap="round"/>
<path d="M109.5 42.5001C79.0004 49.0001 60.5004 71.0001 56.5004 103.5" stroke="#6B5DD3" stroke-width="8" stroke-linecap="round"/>
<path d="M0.500427 103.5H60.5004" stroke="#6B5DD3" stroke-width="8"/>
<path d="M225.5 45.7707V99.7707" stroke="#6B5DD3" stroke-width="8"/>
<path d="M189 4.27072C190 24.7707 202 45.7707 226 48.7707" stroke="#6B5DD3" stroke-width="8" stroke-linecap="round"/>
<path d="M189.5 4.77069V99.7707" stroke="#6B5DD3" stroke-width="8" stroke-linecap="round"/>
<path d="M189.5 4.77058C170 40.7707 138 29.7707 125.5 37.7706" stroke="#6B5DD3" stroke-width="8" stroke-linecap="round"/>
<path d="M120.5 42.7707C151 49.2707 169.5 71.2707 173.5 103.771" stroke="#6B5DD3" stroke-width="8" stroke-linecap="round"/>
<path d="M229.5 103.771H169.5" stroke="#6B5DD3" stroke-width="8"/>
<path d="M89.6342 30.0616L139.105 30.4571C139.659 30.4616 139.795 31.23 139.277 31.4249L128.91 35.3126C128.373 35.514 127.998 36.0037 127.944 36.5743L127.089 45.5479C127.065 45.8043 126.849 46 126.591 46.0001H103.457C103.19 45.9998 102.97 45.7888 102.958 45.5215L102.532 35.7061C102.503 35.0557 102.059 34.498 101.431 34.3253L89.4975 31.043C88.9336 30.8878 89.0492 30.0569 89.6342 30.0616Z" fill="#6B5DD3" stroke="#6B5DD3"/>
<path d="M244.528 55.6494H259.192C266.68 55.6494 270.424 58.5441 270.424 64.3334C270.424 67.5228 268.83 69.9494 265.64 71.6134C267.686 72.1334 269.28 73.0868 270.424 74.4734C271.603 75.8601 272.192 77.6628 272.192 79.8814C272.192 83.2441 271.048 85.8094 268.76 87.5774C266.507 89.3454 263.214 90.2294 258.88 90.2294H244.268V86.0174L245.984 85.8614C246.99 85.7574 247.492 85.2721 247.492 84.4054V60.2254L244.528 60.0694V55.6494ZM253.836 74.4734V85.3414H258.724C263.231 85.3414 265.484 83.5041 265.484 79.8294C265.484 78.0961 264.912 76.7788 263.768 75.8774C262.659 74.9414 261.064 74.4734 258.984 74.4734H253.836ZM253.836 60.4334V69.8454H257.684C259.834 69.8454 261.411 69.4121 262.416 68.5454C263.456 67.6441 263.976 66.3961 263.976 64.8014C263.976 63.2068 263.456 62.0801 262.416 61.4214C261.411 60.7628 259.955 60.4334 258.048 60.4334H253.836ZM276.302 84.4054L284.674 60.1734L281.398 59.8614V55.6494H293.306L303.914 85.6534H303.966L306.93 85.8094V90.2294H293.514V86.0174L295.49 85.8614C296.079 85.7921 296.478 85.6534 296.686 85.4454C296.894 85.2374 296.911 84.8561 296.738 84.3014L295.646 81.0774H283.478L281.918 85.6534L285.038 85.8094V90.2294H273.026V86.0174L274.742 85.8614C275.47 85.7921 275.99 85.3068 276.302 84.4054ZM289.562 61.4734L284.726 76.2934H294.398L289.718 61.4734H289.562ZM319.728 85.5494C323.888 85.5494 325.968 83.8854 325.968 80.5574C325.968 78.8241 325.049 77.5414 323.212 76.7094C322.241 76.2241 320.976 75.7734 319.416 75.3574C317.89 74.9414 316.608 74.5254 315.568 74.1094C314.562 73.6588 313.54 73.0521 312.5 72.2894C310.454 70.7641 309.432 68.4241 309.432 65.2694C309.432 62.0801 310.524 59.5841 312.708 57.7814C314.926 55.9441 317.804 55.0254 321.34 55.0254C324.91 55.0254 328.221 55.7361 331.272 57.1574V64.9574L325.968 65.3214V62.3054C325.968 61.7854 325.898 61.4041 325.76 61.1614C325.378 60.5028 324.148 60.1734 322.068 60.1734C320.022 60.1734 318.497 60.5374 317.492 61.2654C316.521 61.9934 316.036 63.1201 316.036 64.6454C316.036 65.7548 316.452 66.7254 317.284 67.5574C317.838 68.1121 318.653 68.5801 319.728 68.9614C320.837 69.3081 321.998 69.6721 323.212 70.0534C324.46 70.4348 325.552 70.8508 326.488 71.3014C327.458 71.7521 328.464 72.3761 329.504 73.1734C331.618 74.7334 332.676 77.1428 332.676 80.4014C332.676 83.6601 331.497 86.2254 329.14 88.0974C326.817 89.9694 323.732 90.9054 319.884 90.9054C316.07 90.9054 312.638 90.1948 309.588 88.7734V80.5574L314.892 80.1934V83.3654C314.892 83.8854 314.961 84.2668 315.1 84.5094C315.238 84.7521 315.654 84.9948 316.348 85.2374C317.076 85.4454 318.202 85.5494 319.728 85.5494ZM360.832 90.2294H336.132V86.0174L337.848 85.8614C338.853 85.7574 339.356 85.2721 339.356 84.4054V60.2254L336.392 60.0694V55.6494H360.208V64.2814L354.904 64.6454V62.5654C354.904 61.9761 354.817 61.5601 354.644 61.3174C354.47 61.0748 354.054 60.9534 353.396 60.9534H345.7V69.8454H357.712V75.1494H345.7V84.8734H354.072C354.696 84.8734 355.094 84.7521 355.268 84.5094C355.441 84.2321 355.528 83.7988 355.528 83.2094V80.6094L360.832 80.9734V90.2294Z" fill="#6B5DD3"/>
<path d="M389.267 90.2294H364.567V86.0174L366.283 85.8614C367.288 85.7574 367.791 85.2721 367.791 84.4054V60.2254L364.827 60.0694V55.6494H377.359V59.8614L375.643 60.0174C374.637 60.1214 374.135 60.6761 374.135 61.6814V84.8734H382.767C383.252 84.8734 383.564 84.7521 383.703 84.5094C383.876 84.2321 383.963 83.7988 383.963 83.2094V79.5694L389.267 79.9334V90.2294ZM417.3 90.2294H392.6V86.0174L394.316 85.8614C395.322 85.7574 395.824 85.2721 395.824 84.4054V60.2254L392.86 60.0694V55.6494H416.676V64.2814L411.372 64.6454V62.5654C411.372 61.9761 411.286 61.5601 411.112 61.3174C410.939 61.0748 410.523 60.9534 409.864 60.9534H402.168V69.8454H414.18V75.1494H402.168V84.8734H410.54C411.164 84.8734 411.563 84.7521 411.736 84.5094C411.91 84.2321 411.996 83.7988 411.996 83.2094V80.6094L417.3 80.9734V90.2294ZM446.464 61.6814L439.028 71.7174L448.128 85.4454L451.404 85.6534V90.2294H436.948V85.9654L438.508 85.8094C439.166 85.7401 439.617 85.5148 439.86 85.1334C440.102 84.7174 440.068 84.2841 439.756 83.8334L435.076 76.6054L429.096 85.6534L431.592 85.8094V90.2294H419.632V86.0174L421.244 85.8614C421.902 85.7574 422.561 85.2028 423.22 84.1974L431.644 72.1334L423.74 60.4854L420.88 60.2254V55.6494H434.66V59.9134L433.36 60.0694C432.632 60.1388 432.164 60.3814 431.956 60.7974C431.782 61.2134 431.869 61.6814 432.216 62.2014L435.7 67.6614L440.744 60.2254L438.144 60.0694V55.6494H450.052V59.8614L448.44 60.0174C447.781 60.1214 447.122 60.6761 446.464 61.6814Z" fill="#52607A"/>
</svg>
